<?xml version="1.0" encoding="utf-8"?>
<!-- Generator: Adobe Illustrator 25.4.1, SVG Export Plug-In . SVG Version: 6.00 Build 0)  -->
<svg version="1.1" id="Lager_1" xmlns="http://www.w3.org/2000/svg" xmlns:xlink="http://www.w3.org/1999/xlink" x="0px" y="0px"
	 viewBox="0 0 213.908 50" style="enable-background:new 0 0 213.908 50;" xml:space="preserve">
<g>
	<g>
		<g>
			<path d="M28.948,25.64c0,0,0,7.414,0,8.326c0,1.505-0.249,2.54-0.936,3.453s-1.586,1.254-3.013,1.254s-2.325-0.341-3.012-1.254
				c-0.687-0.913-0.937-1.949-0.937-3.453c0-0.912,0-8.326,0-8.326c-7.863-0.169-14.716,0.649-20.768,1.923
				c0.049,0.486,0.107,0.964,0.176,1.433C2.57,43.536,13.807,50,24.999,50c11.193,0,22.429-6.464,24.541-21.005
				c0.068-0.469,0.127-0.947,0.176-1.433C43.664,26.288,36.811,25.47,28.948,25.64z"/>
			<path d="M50,5.475V0c-7.691,3.803-14.771,8.664-21.051,14.396v1.784C35.417,11.747,42.482,8.128,50,5.475z"/>
			<path d="M28.948,19.436c6.617-3.161,13.673-5.544,21.051-7.029V8.435c-7.461,2.215-14.522,5.366-21.051,9.316V19.436z"/>
			<path d="M50,18.573v-3.546c-7.337,1.072-14.39,3.023-21.051,5.745v1.452C35.673,20.213,42.723,18.964,50,18.573z"/>
			<path d="M0,5.475V0c7.691,3.803,14.771,8.664,21.051,14.396v1.784C14.582,11.747,7.517,8.128,0,5.475z"/>
			<path d="M21.051,19.436C14.434,16.275,7.378,13.893,0,12.407V8.435c7.461,2.215,14.522,5.366,21.051,9.316V19.436z"/>
			<path d="M0,18.574v-3.546c7.337,1.072,14.39,3.023,21.051,5.745v1.452C14.327,20.214,7.277,18.965,0,18.574z"/>
			<path d="M0,24.968v-3.561c0.27-0.002,10.084-0.286,21.051,2.267v0.785C11.668,23.571,3.76,24.45,0,24.968z"/>
			<path d="M50,24.968v-3.561c-0.27-0.002-10.084-0.286-21.051,2.267v0.785C38.332,23.571,46.24,24.45,50,24.968z"/>
		</g>
	</g>
	<g>
		<g>
			<g>
				<path d="M59.693,17.324l1.544-0.316c0.409,1.581,1.023,2.921,3.888,2.921c1.935,0,3.367-0.837,3.367-2.716
					c0-1.73-0.967-2.102-3.646-2.624c-3.033-0.595-4.819-1.321-4.819-4c0-2.214,1.712-3.628,4.539-3.628
					c2.958,0,4.149,1.116,4.874,3.293l-1.433,0.372c-0.614-1.768-1.488-2.363-3.349-2.363c-2.288,0-3.125,0.912-3.125,2.251
					c0,1.582,0.688,1.972,3.591,2.53c3.125,0.596,4.93,1.377,4.93,4.13c0,2.661-1.935,4.112-4.93,4.112
					C61.553,21.287,60.232,19.538,59.693,17.324z"/>
				<path d="M70.755,11.873h1.6l2.121,7.07l2.344-7.07h1.172l2.195,7.07l2.177-7.07h1.488l-3.014,9.265h-1.302L77.36,14.18
					l-2.307,6.958h-1.321L70.755,11.873z"/>
				<path d="M88.638,20.059c1.47,0,2.232-0.818,2.623-2.27l1.302,0.26c-0.484,1.823-1.563,3.274-3.944,3.274
					c-2.66,0-4.242-2.121-4.242-4.8c0-2.791,1.488-4.875,4.111-4.875c2.363,0,4.037,1.507,4.149,5.079h-6.772
					C85.94,18.682,86.722,20.059,88.638,20.059z M91.094,15.594c-0.223-1.916-1.06-2.66-2.605-2.66c-1.563,0-2.381,0.986-2.586,2.66
					H91.094z"/>
				<path d="M93.875,16.562c0-2.884,1.284-4.912,3.814-4.912c1.563,0,2.363,0.633,2.865,1.544v-6.14h1.488v14.083h-1.488
					l0.037-1.433c-0.577,0.949-1.433,1.656-2.958,1.656C95.364,21.361,93.875,19.557,93.875,16.562z M100.592,16.543
					c0-2.418-0.93-3.572-2.753-3.572c-1.786,0-2.437,1.395-2.437,3.591c0,2.53,0.912,3.516,2.456,3.516
					C99.401,20.078,100.592,19.091,100.592,16.543z"/>
				<path d="M104.4,7.129h1.581v1.768H104.4V7.129z M104.437,11.873h1.507v9.265h-1.507V11.873z"/>
				<path d="M107.646,18.478l1.377-0.279c0.26,1.097,0.707,1.842,2.381,1.842c1.135,0,2.028-0.502,2.028-1.544
					c0-1.098-0.837-1.191-2.567-1.619c-1.712-0.428-2.94-1.005-2.94-2.623c0-1.749,1.451-2.605,3.107-2.605
					c1.935,0,2.846,0.614,3.423,1.991l-1.246,0.577c-0.354-0.949-0.93-1.303-2.121-1.303c-1.265,0-1.749,0.54-1.749,1.247
					c0,0.93,0.67,1.042,2.288,1.433c1.749,0.428,3.218,0.874,3.218,2.902c0,1.637-1.376,2.828-3.33,2.828
					C109.228,21.324,107.944,20.32,107.646,18.478z"/>
				<path d="M116.54,7.055h1.488v6.121c0.447-0.819,1.246-1.526,2.623-1.526c1.507,0,2.79,0.967,2.79,3.2v6.288h-1.488v-6.381
					c0-1.097-0.447-1.749-1.581-1.749c-1.34,0-2.344,0.67-2.344,2.679v5.451h-1.488V7.055z"/>
			</g>
			<g>
				<path d="M129.945,14.143c0-4.149,2.567-7.219,6.325-7.219c2.791,0,4.633,1.209,5.6,4.037l-1.433,0.502
					c-0.633-2.083-1.935-3.2-4.13-3.2c-2.865,0-4.707,2.344-4.707,5.861c0,3.572,1.842,5.804,4.763,5.804
					c2.139,0,3.591-1.079,4.223-3.312l1.452,0.539c-0.93,2.754-2.846,4.149-5.712,4.149C132.4,21.306,129.945,18.292,129.945,14.143
					z"/>
				<path d="M143.338,16.468c0-2.679,1.544-4.818,4.298-4.818c2.772,0,4.279,2.121,4.279,4.856c0,2.697-1.489,4.818-4.298,4.818
					C144.938,21.324,143.338,19.203,143.338,16.468z M150.389,16.524c0-1.972-0.8-3.572-2.753-3.572s-2.772,1.507-2.772,3.479
					c0,2.009,0.8,3.628,2.772,3.628S150.389,18.533,150.389,16.524z"/>
				<path d="M153.608,18.162v-6.288h1.489v6.381c0,1.116,0.484,1.804,1.618,1.804c1.34,0,2.419-0.763,2.419-2.735v-5.451h1.488
					v9.265h-1.488l0.037-1.358c-0.447,0.819-1.358,1.582-2.735,1.582C154.91,21.361,153.608,20.413,153.608,18.162z"/>
				<path d="M162.985,11.873h1.488l-0.037,1.358c0.446-0.819,1.358-1.582,2.735-1.582c1.525,0,2.828,0.949,2.828,3.2v6.288h-1.488
					v-6.381c0-1.116-0.502-1.749-1.619-1.749c-1.34,0-2.419,0.67-2.419,2.679v5.451h-1.488L162.985,11.873L162.985,11.873z"/>
				<path d="M171.692,16.468c0-2.846,1.525-4.818,4.149-4.818c2.102,0,3.163,1.061,3.721,2.865l-1.358,0.298
					c-0.39-1.228-0.912-1.86-2.363-1.86c-1.804,0-2.623,1.376-2.623,3.479c0,1.991,0.726,3.628,2.716,3.628
					c1.563,0,2.195-0.949,2.549-2.418l1.358,0.279c-0.521,2.028-1.656,3.405-3.925,3.405
					C173.218,21.324,171.692,19.11,171.692,16.468z"/>
				<path d="M181.398,7.129h1.582v1.768h-1.582V7.129z M181.435,11.873h1.507v9.265h-1.507V11.873z"/>
				<path d="M185.34,7.055h1.507v14.083h-1.507V7.055z"/>
			</g>
			<g>
				<path d="M192.885,13.082v-1.209h1.488V9.455c0-0.93,0.279-1.619,0.837-2.047c0.391-0.298,0.893-0.428,1.433-0.428
					c0.539,0,1.005,0.167,1.339,0.372l-0.223,1.34h-0.056c-0.186-0.186-0.502-0.335-0.949-0.335c-0.558,0-0.893,0.298-0.893,1.005
					v2.511h1.879v1.209h-1.879v8.056h-1.488v-8.056C194.373,13.082,192.885,13.082,192.885,13.082z"/>
				<path d="M198.332,16.468c0-2.679,1.544-4.818,4.298-4.818c2.772,0,4.279,2.121,4.279,4.856c0,2.697-1.488,4.818-4.298,4.818
					C199.932,21.324,198.332,19.203,198.332,16.468z M205.383,16.524c0-1.972-0.8-3.572-2.754-3.572
					c-1.953,0-2.772,1.507-2.772,3.479c0,2.009,0.8,3.628,2.772,3.628C204.602,20.059,205.383,18.533,205.383,16.524z"/>
				<path d="M208.736,11.873h1.489l-0.038,1.451c0.391-0.912,1.042-1.674,2.177-1.674c0.726,0,1.21,0.205,1.544,0.521l-0.614,1.284
					h-0.037c-0.26-0.335-0.595-0.521-1.135-0.521c-1.005,0-1.897,0.911-1.897,3.125v5.079h-1.489L208.736,11.873L208.736,11.873z"/>
			</g>
		</g>
		<g>
			<g>
				<path d="M69.032,26.392h1.618v14.009h-1.618V34.15h-7.051v6.251h-1.619V26.392h1.619v6.363h7.051V26.392z"/>
				<path d="M73.276,26.392h1.581v1.768h-1.581V26.392z M73.313,31.136h1.507v9.265h-1.507V31.136z"/>
				<path d="M76.902,34.261c0-2.028,1.395-3.349,3.758-3.349c1.414,0,2.567,0.484,3.256,1.321c0.335-0.837,0.781-1.284,1.544-1.284
					c0.521,0,0.8,0.168,1.042,0.447l-0.651,1.191h-0.037c-0.167-0.223-0.316-0.298-0.595-0.298c-0.391,0-0.67,0.428-0.67,0.93
					c0,0.316,0.093,0.502,0.093,1.079c0,2.233-1.563,3.312-3.888,3.312c-0.67,0-1.265-0.111-1.805-0.316
					c-0.595,0.149-0.967,0.409-0.967,0.893c0,0.726,1.005,0.763,2.381,0.763h0.577c1.618,0,2.437,0.074,3.219,0.353
					c1.079,0.391,1.525,1.172,1.525,2.326c0,2.065-1.712,2.902-4.558,2.902c-2.902,0-4.595-0.763-4.595-2.66
					c0-0.856,0.595-1.488,1.191-1.804c-0.707-0.26-1.153-0.745-1.153-1.619c0-0.837,0.67-1.433,1.451-1.693
					C77.312,36.177,76.902,35.341,76.902,34.261z M77.907,41.759c0,1.079,0.856,1.563,3.237,1.563c2.363,0,3.125-0.558,3.125-1.693
					c0-0.521-0.13-0.8-0.688-1.005c-0.595-0.205-1.209-0.223-2.233-0.223h-0.502c-0.707,0-1.377,0-1.991-0.074
					C78.298,40.605,77.907,41.089,77.907,41.759z M83.153,34.28c0-1.47-0.856-2.177-2.456-2.177c-1.525,0-2.307,0.688-2.307,2.177
					c0,1.563,0.912,2.139,2.381,2.139C82.279,36.419,83.153,35.843,83.153,34.28z"/>
				<path d="M87.468,26.317h1.488v6.121c0.447-0.819,1.246-1.526,2.623-1.526c1.507,0,2.791,0.967,2.791,3.2V40.4h-1.488v-6.381
					c0-1.097-0.447-1.749-1.581-1.749c-1.34,0-2.344,0.67-2.344,2.679V40.4h-1.488L87.468,26.317L87.468,26.317z"/>
				<path d="M100.324,39.322c1.47,0,2.232-0.818,2.623-2.27l1.302,0.26c-0.484,1.823-1.563,3.274-3.944,3.274
					c-2.661,0-4.242-2.121-4.242-4.8c0-2.791,1.488-4.875,4.111-4.875c2.363,0,4.037,1.507,4.149,5.079h-6.772
					C97.626,37.945,98.408,39.322,100.324,39.322z M102.78,34.857c-0.223-1.916-1.061-2.66-2.605-2.66
					c-1.563,0-2.381,0.986-2.586,2.66H102.78z"/>
				<path d="M106.084,31.136h1.488l-0.037,1.451c0.39-0.912,1.042-1.674,2.177-1.674c0.726,0,1.209,0.205,1.544,0.521l-0.614,1.284
					h-0.038c-0.26-0.335-0.595-0.521-1.135-0.521c-1.005,0-1.898,0.911-1.898,3.125v5.079h-1.488v-9.265H106.084z"/>
			</g>
			<g>
				<path d="M117.145,26.392h8.948v1.358h-7.33v4.93h6.083v1.321h-6.083v5.042h7.683v1.358h-9.302V26.392H117.145z"/>
				<path d="M127.405,35.824c0-2.884,1.284-4.912,3.814-4.912c1.563,0,2.363,0.633,2.865,1.544v-6.14h1.489v14.083h-1.489
					l0.038-1.433c-0.577,0.949-1.433,1.656-2.958,1.656C128.894,40.624,127.405,38.819,127.405,35.824z M134.121,35.806
					c0-2.418-0.93-3.572-2.754-3.572c-1.786,0-2.437,1.395-2.437,3.591c0,2.53,0.912,3.516,2.456,3.516
					C132.931,39.341,134.121,38.354,134.121,35.806z"/>
				<path d="M137.85,37.424v-6.288h1.489v6.381c0,1.116,0.484,1.804,1.618,1.804c1.34,0,2.419-0.763,2.419-2.735v-5.451h1.488V40.4
					h-1.488l0.037-1.358c-0.447,0.819-1.358,1.582-2.735,1.582C139.152,40.624,137.85,39.675,137.85,37.424z"/>
				<path d="M146.691,35.731c0-2.846,1.526-4.818,4.149-4.818c2.102,0,3.163,1.061,3.721,2.865l-1.358,0.298
					c-0.391-1.228-0.912-1.86-2.363-1.86c-1.805,0-2.623,1.376-2.623,3.479c0,1.991,0.726,3.628,2.716,3.628
					c1.563,0,2.195-0.949,2.549-2.418l1.358,0.279c-0.521,2.028-1.656,3.405-3.925,3.405
					C148.217,40.587,146.691,38.373,146.691,35.731z"/>
				<path d="M161.738,34.094c0-1.303-0.614-1.879-1.805-1.879c-1.228,0-1.861,0.484-2.419,1.637l-1.228-0.651
					c0.688-1.563,1.972-2.288,3.721-2.288c1.507,0,3.219,0.8,3.219,3.293v4.223c0,0.614,0.13,0.874,0.614,0.874
					c0.335,0,0.558-0.093,0.781-0.223h0.037l-0.149,1.228c-0.186,0.093-0.577,0.26-0.986,0.26c-0.93,0-1.507-0.484-1.712-1.395
					c-0.707,0.893-1.656,1.433-2.939,1.433c-1.656,0-2.958-0.763-2.958-2.512c0-2.567,2.846-3.07,5.823-3.181L161.738,34.094
					L161.738,34.094z M157.404,38.057c0,0.819,0.465,1.34,1.712,1.34c1.451,0,2.623-0.819,2.623-2.047v-1.358
					C159.413,36.085,157.404,36.401,157.404,38.057z"/>
				<path d="M164.611,32.345v-1.209h1.488V28.55c0.484-0.409,1.116-1.116,1.414-1.563h0.056v4.149h1.674v1.209h-1.674v6.028
					c0,0.745,0.26,0.912,0.819,0.912c0.39,0,0.688-0.13,0.912-0.298h0.037l-0.223,1.303c-0.26,0.13-0.67,0.298-1.303,0.298
					c-0.539,0-1.005-0.149-1.265-0.447c-0.298-0.298-0.447-1.005-0.447-1.693v-6.102L164.611,32.345L164.611,32.345z"/>
				<path d="M170.764,26.392h1.582v1.768h-1.582V26.392z M170.801,31.136h1.507v9.265h-1.507V31.136z"/>
				<path d="M174.097,35.731c0-2.679,1.544-4.818,4.298-4.818c2.772,0,4.279,2.121,4.279,4.856c0,2.697-1.488,4.818-4.298,4.818
					C175.697,40.587,174.097,38.466,174.097,35.731z M181.148,35.787c0-1.972-0.8-3.572-2.754-3.572
					c-1.953,0-2.772,1.507-2.772,3.479c0,2.009,0.8,3.628,2.772,3.628C180.367,39.322,181.148,37.796,181.148,35.787z"/>
				<path d="M184.501,31.136h1.488l-0.037,1.358c0.447-0.819,1.358-1.582,2.735-1.582c1.525,0,2.828,0.949,2.828,3.2V40.4h-1.489
					v-6.381c0-1.116-0.502-1.749-1.618-1.749c-1.34,0-2.419,0.67-2.419,2.679V40.4h-1.488V31.136z"/>
			</g>
		</g>
	</g>
</g>
</svg>
